<?xml version="1.0" encoding="UTF-8" standalone="no"?>
<!-- Created with Inkscape (http://www.inkscape.org/) -->

<svg
   width="99.46862mm"
   height="99.46862mm"
   viewBox="0 0 99.46862 99.46862"
   version="1.1"
   id="svg1"
   inkscape:version="1.4 (e7c3feb100, 2024-10-09)"
   sodipodi:docname="logo.svg"
   xmlns:inkscape="http://www.inkscape.org/namespaces/inkscape"
   xmlns:sodipodi="http://sodipodi.sourceforge.net/DTD/sodipodi-0.dtd"
   xmlns="http://www.w3.org/2000/svg"
   xmlns:svg="http://www.w3.org/2000/svg">
  <sodipodi:namedview
     id="namedview1"
     pagecolor="#ffffff"
     bordercolor="#000000"
     borderopacity="0.25"
     inkscape:showpageshadow="2"
     inkscape:pageopacity="0.0"
     inkscape:pagecheckerboard="0"
     inkscape:deskcolor="#d1d1d1"
     inkscape:document-units="mm"
     inkscape:zoom="2.534831"
     inkscape:cx="184.23319"
     inkscape:cy="226.05057"
     inkscape:window-width="2560"
     inkscape:window-height="1410"
     inkscape:window-x="0"
     inkscape:window-y="0"
     inkscape:window-maximized="0"
     inkscape:current-layer="layer1" />
  <defs
     id="defs1" />
  <g
     inkscape:label="Ebene 1"
     inkscape:groupmode="layer"
     id="layer1"
     transform="translate(-0.03581625,0.14768213)">
    <circle
       r="48.96146"
       fill="none"
       stroke="#8bd8bc"
       stroke-width="1.5457"
       id="circle50"
       cx="49.770126"
       cy="49.586628"
       style="fill:#ffffff;fill-opacity:1" />
    <path
       fill="#07054a"
       d="m 74.583608,69.970967 c -1.719185,-0.864589 -3.66608,-1.846651 -4.075691,-4.000855 -0.343837,-1.813529 0.05443,-4.329718 0.438188,-6.764249 0.404166,-2.55473 0.83283,-5.294088 0.400085,-7.499999 5.23376,-5.117638 8.449859,-11.99029 8.449859,-19.54426 C 79.795142,16.396815 65.812138,3.5714232 48.62392,3.5714232 c -17.189126,0 -31.173944,12.8253918 -31.173944,28.5901808 0,8.861277 4.419076,16.794925 11.341629,22.042756 -0.04581,1.864345 0.366971,4.002656 0.777943,6.111496 0.592868,3.038287 1.204789,6.180451 0.389652,8.181315 -0.717161,1.761839 -1.792217,2.547477 -3.484639,2.547477 -1.138563,0 -2.351971,-0.351081 -3.423852,-0.661359 -0.878644,-0.25312 -1.637536,-0.471744 -2.269869,-0.471744 -0.882273,0 -1.519597,0.46132 -1.703761,1.238354 -0.134721,0.570185 -0.127006,1.462428 0.675879,2.479431 1.491017,1.883855 5.081346,3.305463 8.350519,3.304555 4.375075,0 7.355751,-2.33518 8.176787,-6.408161 0.329774,-1.633907 0.845077,-3.183893 1.412545,-4.64406 0.166934,1.439302 0.378765,2.830069 0.571095,4.087931 l 0.190971,1.266025 c 0.643219,4.363749 -1.424339,6.84817 -2.933048,8.663071 -0.995222,1.197532 -2.234033,2.686724 -0.8605,3.994941 a 3.5721845,3.5721845 0 0 0 2.505747,0.988868 c 1.436585,0 2.955728,-0.762975 4.27755,-2.147843 2.576508,-2.700338 3.918743,-7.138477 3.681504,-12.17401 -0.163299,-3.474644 1.428873,-5.7994 2.977501,-7.812986 0.726683,1.857984 1.356296,3.968641 0.886809,6.616825 -1.957783,11.054484 -1.929661,17.596919 0.08618,20.001963 0.614189,0.733486 1.43205,1.121326 2.364673,1.121326 h 9.07e-4 a 3.4764726,3.4764726 0 0 0 0.312083,-0.01372 2.7484275,2.7484275 0 0 0 1.908342,-0.993395 c 1.605782,-1.921058 1.214315,-6.227168 0.761612,-11.213258 -0.343384,-3.760902 -0.696292,-7.65332 -0.08164,-10.137295 0.470848,-1.907892 1.153532,-3.361715 1.892011,-4.545188 0.376496,1.375353 0.587425,2.992922 0.254023,5.129432 -0.645942,4.157796 0.419589,8.336009 2.854118,11.176964 1.483761,1.733704 3.276884,2.727115 4.919408,2.728025 h 9.07e-4 c 0.715345,0 1.369905,-0.187799 1.943723,-0.554774 0.554313,-0.355625 0.740292,-0.812419 0.797901,-1.133567 0.171919,-0.94714 -0.475838,-1.811266 -1.369905,-3.006089 -1.360379,-1.818518 -3.222903,-4.308391 -2.68855,-7.789396 0.204124,-1.329989 0.630971,-2.872723 1.0805,-4.50435 0.128823,-0.469944 0.26264,-0.951682 0.391919,-1.441119 a 18.797629,18.797629 0 0 1 0.225899,1.701936 c 0.57155,6.778771 4.995162,9.182905 8.609533,9.182905 h 4.52e-4 c 1.986815,0 3.515029,-0.734858 3.893794,-1.872059 0.554768,-1.660207 -1.102727,-2.495771 -2.564714,-3.231967 M 48.620753,54.612053 c -8.649905,0 -14.564535,-0.505775 -14.564535,-6.24577 0,-5.743611 5.915085,-6.257102 14.564535,-6.257102 8.652624,0 14.56544,0.513491 14.56544,6.257102 0,5.739995 -5.912816,6.246216 -14.56544,6.246216 m 6.287044,-8.897571 c -1.006109,0 -1.817619,1.154449 -1.817619,2.578783 0,1.425243 0.811964,2.578766 1.817165,2.578766 0.999758,0 1.814444,-1.153523 1.814444,-2.578766 0,-1.424334 -0.813779,-2.578783 -1.814444,-2.578783 m -12.570915,0 c -0.99885,0 -1.814896,1.154449 -1.814896,2.578783 0,1.425243 0.815139,2.578766 1.814443,2.578766 1.007016,0 1.818979,-1.153523 1.818979,-2.578766 -0.0014,-1.424334 -0.811963,-2.578783 -1.818979,-2.578783"
       id="path50"
       style="stroke-width:0.45361" />
  </g>
</svg>
